<svg xmlns="http://www.w3.org/2000/svg" version="1.1" xmlns:xlink="http://www.w3.org/1999/xlink" xmlns:svgjs="http://svgjs.com/svgjs" width="512" height="512" x="0" y="0" viewBox="0 0 24 24" style="enable-background:new 0 0 512 512" xml:space="preserve" class=""><g><path d="M9.5 15h-6a.5.5 0 0 1 0-1h6a.5.5 0 0 1 0 1zM8.5 18h-5a.5.5 0 0 1 0-1h5a.5.5 0 0 1 0 1zM8.5 7c-1.103 0-2-.897-2-2s.897-2 2-2 2 .897 2 2-.897 2-2 2zm0-3c-.551 0-1 .449-1 1s.449 1 1 1 1-.449 1-1-.449-1-1-1zM12 12a.5.5 0 0 1-.5-.5v-1c0-.827-.673-1.5-1.5-1.5H7c-.827 0-1.5.673-1.5 1.5v1a.5.5 0 0 1-1 0v-1C4.5 9.122 5.622 8 7 8h3c1.378 0 2.5 1.122 2.5 2.5v1a.5.5 0 0 1-.5.5z" fill="#000000" data-original="#000000" class=""></path><path d="M9.5 21h-7A2.503 2.503 0 0 1 0 18.5v-16C0 1.122 1.122 0 2.5 0h12C15.878 0 17 1.122 17 2.5v6.06a.5.5 0 0 1-1 0V2.5c0-.827-.673-1.5-1.5-1.5h-12C1.673 1 1 1.673 1 2.5v16c0 .827.673 1.5 1.5 1.5h7a.5.5 0 0 1 0 1z" fill="#000000" data-original="#000000" class=""></path><path d="M17.5 24c-3.584 0-6.5-2.916-6.5-6.5s2.916-6.5 6.5-6.5 6.5 2.916 6.5 6.5-2.916 6.5-6.5 6.5zm0-12c-3.033 0-5.5 2.467-5.5 5.5s2.467 5.5 5.5 5.5 5.5-2.467 5.5-5.5-2.467-5.5-5.5-5.5z" fill="#000000" data-original="#000000" class=""></path><path d="M16.5 20a.505.505 0 0 1-.354-.146l-2-2a.5.5 0 0 1 .707-.707l1.622 1.622 3.148-3.598a.5.5 0 1 1 .753.659l-3.5 4a.499.499 0 0 1-.36.17H16.5z" fill="#000000" data-original="#000000" class=""></path></g></svg>