<svg xmlns="http://www.w3.org/2000/svg" version="1.1" xmlns:xlink="http://www.w3.org/1999/xlink" xmlns:svgjs="http://svgjs.com/svgjs" width="200" height="200" x="0" y="0" viewBox="0 0 512 512" style="enable-background:new 0 0 512 512" xml:space="preserve" class=""><g><path d="M511.533 281.377a86.218 86.218 0 0 0-64.046-74.577 84.163 84.163 0 0 0-58.607-96.257 84.633 84.633 0 0 0-58.643 3.911A136.429 136.429 0 0 0 306.165 87.9c-57.56-48.716-144.022-41.521-192.739 16.04A136.681 136.681 0 0 0 81.61 204.4C59.45 205.946 39.6 214.452 25 228.819 8.877 244.678 0 266.494 0 290.254a86.657 86.657 0 0 0 19.308 54.37c10.926 13.43 27.064 29.086 55.105 30.962.364.025.486.033 23.731.041a7.925 7.925 0 0 0 7.6-5.388 8.043 8.043 0 0 0-7.595-10.639c-8.438 0-21.093-.009-22.875-.019-21.62-1.521-34.135-13.52-43.523-25.06a70.568 70.568 0 0 1-15.72-44.267c0-19.424 7.177-37.181 20.209-50 13.7-13.475 32.454-20.423 54.268-20.055l.972.016a7.2 7.2 0 0 0 7.227-8.311l-.151-.961a120.685 120.685 0 0 1 222.054-81.9l.413.672a7.2 7.2 0 0 0 9.663 2.5l.687-.387a68.45 68.45 0 0 1 52.919-5.916 67.671 67.671 0 0 1 40.49 32.994 69.28 69.28 0 0 1 5.024 52.62l-.013.044a7.2 7.2 0 0 0 5.794 9.172 71.99 71.99 0 0 1 33.666 14.408 70.195 70.195 0 0 1 10.992 99.363c-11.926 14.659-23.865 24.533-43.346 25.066-1.341 0-19.029.017-25.873.021a8.043 8.043 0 0 0-7.592 10.644 7.926 7.926 0 0 0 7.6 5.388c25.9-.018 26.061-.022 26.2-.025 27.229-.715 43.306-16.061 55.443-30.981a85.657 85.657 0 0 0 18.856-63.249z" fill="#000000" data-original="#000000" class=""></path><path d="M377.691 197.236H134.3a12.733 12.733 0 0 0-12.733 12.733v51.592a12.733 12.733 0 0 0 12.733 12.733h243.392a12.733 12.733 0 0 0 12.733-12.733V209.97a12.734 12.734 0 0 0-12.734-12.734zm-3.3 61.027H137.6v-45h236.8z" fill="#000000" data-original="#000000" class=""></path><path d="M162.848 243.781h100.139a8.2 8.2 0 0 0 8.273-7.482 8.016 8.016 0 0 0-8-8.549H163.123a8.2 8.2 0 0 0-8.273 7.482 8.016 8.016 0 0 0 7.998 8.549zM302.414 243.781h4.323a8.2 8.2 0 0 0 8.273-7.482 8.016 8.016 0 0 0-8-8.549h-4.324a8.2 8.2 0 0 0-8.273 7.482 8.016 8.016 0 0 0 8.001 8.549zM332.442 243.781h4.325a8.2 8.2 0 0 0 8.272-7.482 8.015 8.015 0 0 0-8-8.549h-4.324a8.2 8.2 0 0 0-8.273 7.482 8.016 8.016 0 0 0 8 8.549zM377.691 288.293H134.3a12.733 12.733 0 0 0-12.733 12.733v51.592a12.733 12.733 0 0 0 12.733 12.733h243.392a12.733 12.733 0 0 0 12.733-12.733v-51.592a12.734 12.734 0 0 0-12.734-12.733zm-3.3 61.027H137.6v-45h236.8z" fill="#000000" data-original="#000000" class=""></path><path d="M162.848 334.837h100.139a8.2 8.2 0 0 0 8.273-7.482 8.017 8.017 0 0 0-8-8.549H163.123a8.2 8.2 0 0 0-8.273 7.483 8.016 8.016 0 0 0 7.998 8.548zM302.414 334.837h4.323a8.2 8.2 0 0 0 8.273-7.482 8.017 8.017 0 0 0-8-8.549h-4.324a8.2 8.2 0 0 0-8.273 7.483 8.016 8.016 0 0 0 8.001 8.548zM332.442 334.837h4.325a8.2 8.2 0 0 0 8.272-7.482 8.016 8.016 0 0 0-8-8.549h-4.324a8.2 8.2 0 0 0-8.273 7.483 8.016 8.016 0 0 0 8 8.548zM377.692 379.349H134.3a12.747 12.747 0 0 0-12.733 12.733v51.592a12.747 12.747 0 0 0 12.733 12.733h243.392a12.747 12.747 0 0 0 12.733-12.733v-51.592a12.747 12.747 0 0 0-12.733-12.733zm-3.3 61.027H137.6v-45h236.8z" fill="#000000" data-original="#000000" class=""></path><path d="M162.848 425.893h100.413a8.016 8.016 0 1 0 0-16.031H162.848a8.016 8.016 0 0 0 0 16.031zM302.414 425.893h4.6a8.016 8.016 0 0 0 0-16.031h-4.6a8.016 8.016 0 1 0 0 16.031zM332.442 425.893h4.6a8.016 8.016 0 1 0 0-16.031h-4.6a8.016 8.016 0 0 0 0 16.031z" fill="#000000" data-original="#000000" class=""></path></g></svg>