<svg xmlns="http://www.w3.org/2000/svg" version="1.1" xmlns:xlink="http://www.w3.org/1999/xlink" xmlns:svgjs="http://svgjs.com/svgjs" width="200" height="200" x="0" y="0" viewBox="0 0 511.988 511.988" style="enable-background:new 0 0 512 512" xml:space="preserve" class=""><g><path d="M502.042 169.126a43.81 43.81 0 0 0-33.658-15.533H460.8v-2.983c-.023-21.907-17.777-39.66-39.683-39.683H242.6a25.401 25.401 0 0 1-21.692-12.033L198.3 62.718a42.37 42.37 0 0 0-36.167-20.058H32.683C14.64 42.678.018 57.3 0 75.343v354.3c.023 21.907 17.777 39.66 39.683 39.683H427.85c21.012.18 39.128-14.736 42.983-35.392l40.533-230.417a42.127 42.127 0 0 0-9.324-34.391zM17.067 75.343c.012-8.62 6.997-15.605 15.617-15.617h129.45a25.401 25.401 0 0 1 21.692 12.033l22.608 36.175a42.37 42.37 0 0 0 36.167 20.058h178.517c12.486.011 22.605 10.131 22.617 22.617v2.983H84.083c-21.012-.228-39.13 14.719-42.9 35.392L17.067 326.046V75.343zM494.55 200.585l-40.525 230.367c-2.409 12.507-13.44 21.486-26.175 21.308H39.683c-12.486-.011-22.605-10.13-22.617-22.617v-2.9c.002-1.478.133-2.953.392-4.408L58 191.926c2.351-12.497 13.368-21.48 26.083-21.266h384.3a26.796 26.796 0 0 1 20.6 9.45 25.089 25.089 0 0 1 5.567 20.475z" fill="#000000" data-original="#000000" class=""></path></g></svg>