<svg xmlns="http://www.w3.org/2000/svg" version="1.1" xmlns:xlink="http://www.w3.org/1999/xlink" xmlns:svgjs="http://svgjs.com/svgjs" width="512" height="512" x="0" y="0" viewBox="0 0 64 64" style="enable-background:new 0 0 512 512" xml:space="preserve" class=""><g><g data-name="Layer 7"><path d="M50 20a12.7 12.7 0 0 0-2.12.183 15.982 15.982 0 0 0-31.76 0A12.7 12.7 0 0 0 14 20a13 13 0 0 0 0 26h2v11a1 1 0 0 0 1 1h30a1 1 0 0 0 1-1V46h2a13 13 0 0 0 0-26Zm-4 36H18V34h8.586l2.707 2.707A1 1 0 0 0 30 37h16ZM31 20a1 1 0 1 1 1 1 1 1 0 0 1-1-1Zm19 24h-2v-8a1 1 0 0 0-1-1H37v-7h3.184a3 3 0 1 0 0-2H36a1 1 0 0 0-1 1v8h-2V22.816a3 3 0 1 0-2 0V35h-.586L29 33.586V27a1 1 0 0 0-1-1h-4.184a3 3 0 1 0 0 2H27v4H17a1 1 0 0 0-1 1v11h-2a11 11 0 1 1 2.778-21.631 1 1 0 0 0 1.251-.928 13.981 13.981 0 0 1 27.942 0 1 1 0 0 0 1.251.928A10.995 10.995 0 1 1 50 44Zm-8-17a1 1 0 1 1 1 1 1 1 0 0 1-1-1Zm-20 0a1 1 0 1 1-1-1 1 1 0 0 1 1 1Z" fill="#000000" data-original="#000000" class=""></path><path d="M50 24v2a7.008 7.008 0 0 1 7 7h2a9.01 9.01 0 0 0-9-9ZM28 48h-2v4a1 1 0 0 0 1 1h10a1 1 0 0 0 1-1v-4h-2v3h-8Z" fill="#000000" data-original="#000000" class=""></path><path d="m29.707 44.293-1.414 1.414 3 3a1 1 0 0 0 1.414 0l3-3-1.414-1.414L33 45.586V40h-2v5.586Z" fill="#000000" data-original="#000000" class=""></path></g></g></svg>