<svg xmlns="http://www.w3.org/2000/svg" xmlns:xlink="http://www.w3.org/1999/xlink" style="isolation:isolate" viewBox="0 0 1250 506.3" width="1250pt" height="506.3pt"><defs><clipPath id="_clipPath_092dgAZJwpgxrlCQPwRfbCQTLOa8Zd7I"><rect width="1250" height="506.3"></rect></clipPath></defs><g clip-path="url(#_clipPath_092dgAZJwpgxrlCQPwRfbCQTLOa8Zd7I)"><g><g><g><g><path d=" M 6.687 9.978 C -2.229 -0.066 -2.229 0 6.687 0 C 331.403 89.738 398.722 194.722 398.722 253.133 C 398.722 311.544 307.338 417.251 6.687 506.267 C -2.164 506.332 -2.099 506.201 6.687 496.288 C 144.626 399.925 230.855 315.716 230.855 253.133 C 230.855 188.688 155.22 111.779 6.687 9.978 Z " fill="rgb(212,27,32)"></path><path d=" M 18.88 94.897 C 15.057 88.361 15.057 88.404 18.88 88.404 C 158.122 146.801 186.989 215.12 186.989 253.131 C 186.989 291.142 147.802 359.931 18.88 417.858 C 15.085 417.9 15.113 417.815 18.88 411.364 C 78.03 348.656 115.006 293.857 115.006 253.131 C 115.006 211.193 82.573 161.144 18.88 94.897 Z " fill="rgb(212,27,32)"></path></g><path d=" M 476.827 315.471 L 476.827 315.471 L 476.827 315.471 Q 465.53 315.471 456.723 313.365 L 456.723 313.365 L 456.723 313.365 Q 447.915 311.259 441.31 307.525 L 441.31 307.525 L 441.31 307.525 Q 434.704 303.792 430.061 298.67 L 430.061 298.67 L 430.061 298.67 Q 425.418 293.548 422.546 287.517 L 422.546 287.517 L 422.546 287.517 Q 419.674 281.486 418.381 274.784 L 418.381 274.784 L 418.381 274.784 Q 417.089 268.083 417.089 261.19 L 417.089 261.19 L 417.089 261.19 Q 417.089 254.393 418.381 247.739 L 418.381 247.739 L 418.381 247.739 Q 419.674 241.086 422.546 235.006 L 422.546 235.006 L 422.546 235.006 Q 425.418 228.927 430.013 223.805 L 430.013 223.805 L 430.013 223.805 Q 434.608 218.684 441.262 214.902 L 441.262 214.902 L 441.262 214.902 Q 447.915 211.121 456.723 208.967 L 456.723 208.967 L 456.723 208.967 Q 465.53 206.813 476.827 206.813 L 476.827 206.813 L 476.827 206.813 Q 488.124 206.813 496.931 208.967 L 496.931 208.967 L 496.931 208.967 Q 505.739 211.121 512.393 214.902 L 512.393 214.902 L 512.393 214.902 Q 519.046 218.684 523.641 223.805 L 523.641 223.805 L 523.641 223.805 Q 528.237 228.927 531.109 235.006 L 531.109 235.006 L 531.109 235.006 Q 533.981 241.086 535.273 247.739 L 535.273 247.739 L 535.273 247.739 Q 536.566 254.393 536.566 261.19 L 536.566 261.19 L 536.566 261.19 Q 536.566 268.083 535.273 274.784 L 535.273 274.784 L 535.273 274.784 Q 533.981 281.486 531.109 287.517 L 531.109 287.517 L 531.109 287.517 Q 528.237 293.548 523.593 298.67 L 523.593 298.67 L 523.593 298.67 Q 518.95 303.792 512.345 307.525 L 512.345 307.525 L 512.345 307.525 Q 505.739 311.259 496.931 313.365 L 496.931 313.365 L 496.931 313.365 Q 488.124 315.471 476.827 315.471 Z  M 458.446 261.19 L 458.446 261.19 L 458.446 261.19 Q 458.446 266.359 459.403 271.29 L 459.403 271.29 L 459.403 271.29 Q 460.361 276.22 462.515 280.097 L 462.515 280.097 L 462.515 280.097 Q 464.669 283.975 468.163 286.32 L 468.163 286.32 L 468.163 286.32 Q 471.657 288.666 476.827 288.666 L 476.827 288.666 L 476.827 288.666 Q 481.997 288.666 485.491 286.32 L 485.491 286.32 L 485.491 286.32 Q 488.985 283.975 491.139 280.097 L 491.139 280.097 L 491.139 280.097 Q 493.293 276.22 494.251 271.29 L 494.251 271.29 L 494.251 271.29 Q 495.208 266.359 495.208 261.19 L 495.208 261.19 L 495.208 261.19 Q 495.208 256.02 494.251 251.09 L 494.251 251.09 L 494.251 251.09 Q 493.293 246.159 491.139 242.282 L 491.139 242.282 L 491.139 242.282 Q 488.985 238.405 485.491 236.012 L 485.491 236.012 L 485.491 236.012 Q 481.997 233.618 476.827 233.618 L 476.827 233.618 L 476.827 233.618 Q 471.657 233.618 468.163 236.012 L 468.163 236.012 L 468.163 236.012 Q 464.669 238.405 462.515 242.282 L 462.515 242.282 L 462.515 242.282 Q 460.361 246.159 459.403 251.09 L 459.403 251.09 L 459.403 251.09 Q 458.446 256.02 458.446 261.19 Z  M 594.641 261.19 L 594.641 261.19 L 594.641 261.19 Q 594.641 268.178 596.316 273.348 L 596.316 273.348 L 596.316 273.348 Q 597.992 278.518 601.055 281.916 L 601.055 281.916 L 601.055 281.916 Q 604.119 285.315 608.427 286.99 L 608.427 286.99 L 608.427 286.99 Q 612.735 288.666 618.096 288.666 L 618.096 288.666 L 618.096 288.666 Q 624.989 288.666 631.116 286.799 L 631.116 286.799 L 631.116 286.799 Q 637.243 284.932 643.657 281.677 L 643.657 281.677 L 649.784 306.568 L 649.784 306.568 Q 645.572 308.77 640.689 310.445 L 640.689 310.445 L 640.689 310.445 Q 635.807 312.121 630.637 313.222 L 630.637 313.222 L 630.637 313.222 Q 625.467 314.323 620.154 314.897 L 620.154 314.897 L 620.154 314.897 Q 614.841 315.471 609.767 315.471 L 609.767 315.471 L 609.767 315.471 Q 598.183 315.471 587.939 312.216 L 587.939 312.216 L 587.939 312.216 Q 577.696 308.961 569.989 302.26 L 569.989 302.26 L 569.989 302.26 Q 562.283 295.559 557.783 285.315 L 557.783 285.315 L 557.783 285.315 Q 553.284 275.071 553.284 261.094 L 553.284 261.094 L 553.284 261.094 Q 553.284 247.117 557.783 236.873 L 557.783 236.873 L 557.783 236.873 Q 562.283 226.63 569.989 219.928 L 569.989 219.928 L 569.989 219.928 Q 577.696 213.227 587.939 209.972 L 587.939 209.972 L 587.939 209.972 Q 598.183 206.717 609.767 206.717 L 609.767 206.717 L 609.767 206.717 Q 614.841 206.717 620.154 207.291 L 620.154 207.291 L 620.154 207.291 Q 625.467 207.866 630.637 208.967 L 630.637 208.967 L 630.637 208.967 Q 635.807 210.067 640.689 211.743 L 640.689 211.743 L 640.689 211.743 Q 645.572 213.418 649.784 215.62 L 649.784 215.62 L 643.657 240.511 L 643.657 240.511 Q 637.243 237.256 631.116 235.389 L 631.116 235.389 L 631.116 235.389 Q 624.989 233.522 618.096 233.522 L 618.096 233.522 L 618.096 233.522 Q 612.735 233.522 608.427 235.198 L 608.427 235.198 L 608.427 235.198 Q 604.119 236.873 601.055 240.32 L 601.055 240.32 L 601.055 240.32 Q 597.992 243.766 596.316 248.984 L 596.316 248.984 L 596.316 248.984 Q 594.641 254.201 594.641 261.19 Z  M 793.446 209.397 L 793.446 312.695 L 752.185 312.695 L 753.046 306.089 L 753.046 306.089 Q 753.429 303.026 753.716 299.196 L 753.716 299.196 L 753.716 299.196 Q 754.003 295.367 754.195 291.25 L 754.195 291.25 L 754.195 291.25 Q 751.323 296.899 746.967 301.35 L 746.967 301.35 L 746.967 301.35 Q 742.611 305.802 737.346 308.961 L 737.346 308.961 L 737.346 308.961 Q 732.08 312.121 726.145 313.796 L 726.145 313.796 L 726.145 313.796 Q 720.209 315.471 714.178 315.471 L 714.178 315.471 L 714.178 315.471 Q 706.711 315.471 700.009 313.03 L 700.009 313.03 L 700.009 313.03 Q 693.308 310.589 688.186 305.276 L 688.186 305.276 L 688.186 305.276 Q 683.064 299.962 680.048 291.586 L 680.048 291.586 L 680.048 291.586 Q 677.033 283.209 677.033 271.338 L 677.033 271.338 L 677.033 209.397 L 718.39 209.397 L 718.39 267.508 L 718.39 267.508 Q 718.39 273.444 719.491 277.465 L 719.491 277.465 L 719.491 277.465 Q 720.592 281.486 722.507 283.975 L 722.507 283.975 L 722.507 283.975 Q 724.421 286.464 726.911 287.565 L 726.911 287.565 L 726.911 287.565 Q 729.4 288.666 732.176 288.666 L 732.176 288.666 L 732.176 288.666 Q 735.431 288.666 738.734 287.325 L 738.734 287.325 L 738.734 287.325 Q 742.037 285.985 744.765 283.687 L 744.765 283.687 L 744.765 283.687 Q 747.494 281.39 749.456 278.278 L 749.456 278.278 L 749.456 278.278 Q 751.419 275.167 752.089 271.625 L 752.089 271.625 L 752.089 209.397 L 793.446 209.397 Z  M 906.569 212.174 L 905.133 240.32 L 905.133 240.32 Q 895.559 235.916 886.417 233.475 L 886.417 233.475 L 886.417 233.475 Q 877.274 231.033 870.381 231.033 L 870.381 231.033 L 870.381 231.033 Q 863.105 231.033 860.042 232.422 L 860.042 232.422 L 860.042 232.422 Q 856.978 233.81 856.978 237.256 L 856.978 237.256 L 856.978 237.256 Q 856.978 240.32 861.478 242.091 L 861.478 242.091 L 861.478 242.091 Q 865.977 243.862 874.689 246.159 L 874.689 246.159 L 874.689 246.159 Q 883.401 248.457 890.294 251.233 L 890.294 251.233 L 890.294 251.233 Q 897.187 254.01 902.022 258.126 L 902.022 258.126 L 902.022 258.126 Q 906.856 262.243 909.393 267.987 L 909.393 267.987 L 909.393 267.987 Q 911.93 273.731 911.93 282.06 L 911.93 282.06 L 911.93 282.06 Q 911.93 289.527 909.058 295.702 L 909.058 295.702 L 909.058 295.702 Q 906.186 301.877 900.346 306.281 L 900.346 306.281 L 900.346 306.281 Q 894.506 310.685 885.603 313.078 L 885.603 313.078 L 885.603 313.078 Q 876.7 315.471 864.637 315.471 L 864.637 315.471 L 864.637 315.471 Q 853.915 315.471 843.097 313.892 L 843.097 313.892 L 843.097 313.892 Q 832.279 312.312 821.269 308.291 L 821.269 308.291 L 821.269 278.709 L 821.269 278.709 Q 831.13 283.017 841.086 285.602 L 841.086 285.602 L 841.086 285.602 Q 851.043 288.187 860.042 288.187 L 860.042 288.187 L 860.042 288.187 Q 876.221 288.187 876.221 281.486 L 876.221 281.486 L 876.221 281.486 Q 876.221 280.337 875.455 279.379 L 875.455 279.379 L 875.455 279.379 Q 874.689 278.422 872.631 277.513 L 872.631 277.513 L 872.631 277.513 Q 870.573 276.603 866.887 275.598 L 866.887 275.598 L 866.887 275.598 Q 863.201 274.593 857.457 273.157 L 857.457 273.157 L 857.457 273.157 Q 849.511 271.242 842.475 268.226 L 842.475 268.226 L 842.475 268.226 Q 835.438 265.211 830.221 260.855 L 830.221 260.855 L 830.221 260.855 Q 825.003 256.499 821.987 250.659 L 821.987 250.659 L 821.987 250.659 Q 818.972 244.819 818.972 237.352 L 818.972 237.352 L 818.972 237.352 Q 818.972 230.65 821.796 225.002 L 821.796 225.002 L 821.796 225.002 Q 824.62 219.354 830.316 215.333 L 830.316 215.333 L 830.316 215.333 Q 836.013 211.312 844.485 209.062 L 844.485 209.062 L 844.485 209.062 Q 852.958 206.813 864.158 206.813 L 864.158 206.813 L 864.158 206.813 Q 870.668 206.813 876.652 207.387 L 876.652 207.387 L 876.652 207.387 Q 882.635 207.961 887.996 208.775 L 887.996 208.775 L 887.996 208.775 Q 893.358 209.589 898.001 210.498 L 898.001 210.498 L 898.001 210.498 Q 902.644 211.408 906.569 212.174 L 906.569 212.174 Z  M 989.248 315.471 L 989.248 315.471 L 989.248 315.471 Q 977.951 315.471 969.144 313.365 L 969.144 313.365 L 969.144 313.365 Q 960.336 311.259 953.731 307.525 L 953.731 307.525 L 953.731 307.525 Q 947.125 303.792 942.482 298.67 L 942.482 298.67 L 942.482 298.67 Q 937.839 293.548 934.967 287.517 L 934.967 287.517 L 934.967 287.517 Q 932.095 281.486 930.802 274.784 L 930.802 274.784 L 930.802 274.784 Q 929.51 268.083 929.51 261.19 L 929.51 261.19 L 929.51 261.19 Q 929.51 254.393 930.802 247.739 L 930.802 247.739 L 930.802 247.739 Q 932.095 241.086 934.967 235.006 L 934.967 235.006 L 934.967 235.006 Q 937.839 228.927 942.434 223.805 L 942.434 223.805 L 942.434 223.805 Q 947.029 218.684 953.683 214.902 L 953.683 214.902 L 953.683 214.902 Q 960.336 211.121 969.144 208.967 L 969.144 208.967 L 969.144 208.967 Q 977.951 206.813 989.248 206.813 L 989.248 206.813 L 989.248 206.813 Q 1000.545 206.813 1009.352 208.967 L 1009.352 208.967 L 1009.352 208.967 Q 1018.16 211.121 1024.814 214.902 L 1024.814 214.902 L 1024.814 214.902 Q 1031.467 218.684 1036.062 223.805 L 1036.062 223.805 L 1036.062 223.805 Q 1040.658 228.927 1043.53 235.006 L 1043.53 235.006 L 1043.53 235.006 Q 1046.402 241.086 1047.694 247.739 L 1047.694 247.739 L 1047.694 247.739 Q 1048.986 254.393 1048.986 261.19 L 1048.986 261.19 L 1048.986 261.19 Q 1048.986 268.083 1047.694 274.784 L 1047.694 274.784 L 1047.694 274.784 Q 1046.402 281.486 1043.53 287.517 L 1043.53 287.517 L 1043.53 287.517 Q 1040.658 293.548 1036.014 298.67 L 1036.014 298.67 L 1036.014 298.67 Q 1031.371 303.792 1024.766 307.525 L 1024.766 307.525 L 1024.766 307.525 Q 1018.16 311.259 1009.352 313.365 L 1009.352 313.365 L 1009.352 313.365 Q 1000.545 315.471 989.248 315.471 Z  M 970.867 261.19 L 970.867 261.19 L 970.867 261.19 Q 970.867 266.359 971.824 271.29 L 971.824 271.29 L 971.824 271.29 Q 972.782 276.22 974.936 280.097 L 974.936 280.097 L 974.936 280.097 Q 977.09 283.975 980.584 286.32 L 980.584 286.32 L 980.584 286.32 Q 984.078 288.666 989.248 288.666 L 989.248 288.666 L 989.248 288.666 Q 994.418 288.666 997.912 286.32 L 997.912 286.32 L 997.912 286.32 Q 1001.406 283.975 1003.56 280.097 L 1003.56 280.097 L 1003.56 280.097 Q 1005.714 276.22 1006.672 271.29 L 1006.672 271.29 L 1006.672 271.29 Q 1007.629 266.359 1007.629 261.19 L 1007.629 261.19 L 1007.629 261.19 Q 1007.629 256.02 1006.672 251.09 L 1006.672 251.09 L 1006.672 251.09 Q 1005.714 246.159 1003.56 242.282 L 1003.56 242.282 L 1003.56 242.282 Q 1001.406 238.405 997.912 236.012 L 997.912 236.012 L 997.912 236.012 Q 994.418 233.618 989.248 233.618 L 989.248 233.618 L 989.248 233.618 Q 984.078 233.618 980.584 236.012 L 980.584 236.012 L 980.584 236.012 Q 977.09 238.405 974.936 242.282 L 974.936 242.282 L 974.936 242.282 Q 972.782 246.159 971.824 251.09 L 971.824 251.09 L 971.824 251.09 Q 970.867 256.02 970.867 261.19 Z  M 1119.412 233.522 L 1119.412 312.695 L 1078.054 312.695 L 1078.054 233.522 L 1061.588 233.522 L 1061.588 209.397 L 1077.863 209.397 L 1077.863 209.397 Q 1077.863 197.622 1081.022 188.862 L 1081.022 188.862 L 1081.022 188.862 Q 1084.181 180.103 1090.021 174.263 L 1090.021 174.263 L 1090.021 174.263 Q 1095.861 168.423 1104.142 165.503 L 1104.142 165.503 L 1104.142 165.503 Q 1112.423 162.583 1122.762 162.583 L 1122.762 162.583 L 1122.762 162.583 Q 1131.187 162.583 1138.367 164.402 L 1138.367 164.402 L 1138.367 164.402 Q 1145.547 166.221 1151.578 168.71 L 1151.578 168.71 L 1148.515 193.314 L 1148.515 193.314 Q 1142.962 191.974 1139.277 191.064 L 1139.277 191.064 L 1139.277 191.064 Q 1135.591 190.155 1132.144 190.155 L 1132.144 190.155 L 1132.144 190.155 Q 1127.741 190.155 1125.204 191.782 L 1125.204 191.782 L 1125.204 191.782 Q 1122.667 193.41 1121.374 196.09 L 1121.374 196.09 L 1121.374 196.09 Q 1120.082 198.771 1119.747 202.265 L 1119.747 202.265 L 1119.747 202.265 Q 1119.412 205.759 1119.412 209.397 L 1119.412 209.397 L 1148.323 209.397 L 1148.323 209.397 Q 1146.983 215.716 1146.217 221.556 L 1146.217 221.556 L 1146.217 221.556 Q 1145.451 227.395 1145.451 233.522 L 1145.451 233.522 L 1119.412 233.522 Z  M 1217.6 315.471 L 1217.6 315.471 L 1217.6 315.471 Q 1208.696 315.471 1200.559 313.317 L 1200.559 313.317 L 1200.559 313.317 Q 1192.422 311.163 1186.247 306.041 L 1186.247 306.041 L 1186.247 306.041 Q 1180.072 300.92 1176.386 292.447 L 1176.386 292.447 L 1176.386 292.447 Q 1172.7 283.975 1172.7 271.338 L 1172.7 271.338 L 1172.7 233.14 L 1153.649 233.14 L 1153.649 226.917 L 1198.74 177.901 L 1214.058 177.901 L 1214.058 209.397 L 1244.693 209.397 L 1244.693 209.397 Q 1243.544 215.141 1242.634 220.981 L 1242.634 220.981 L 1242.634 220.981 Q 1241.725 226.821 1241.629 233.14 L 1241.629 233.14 L 1214.058 233.14 L 1214.058 270.955 L 1214.058 270.955 Q 1214.058 274.401 1214.584 277.608 L 1214.584 277.608 L 1214.584 277.608 Q 1215.111 280.815 1216.738 283.257 L 1216.738 283.257 L 1216.738 283.257 Q 1218.366 285.698 1221.429 287.182 L 1221.429 287.182 L 1221.429 287.182 Q 1224.493 288.666 1229.567 288.666 L 1229.567 288.666 L 1229.567 288.666 Q 1232.822 288.666 1236.747 288.043 L 1236.747 288.043 L 1236.747 288.043 Q 1240.672 287.421 1245.65 285.698 L 1245.65 285.698 L 1247.948 310.493 L 1247.948 310.493 Q 1241.916 312.695 1234.114 314.083 L 1234.114 314.083 L 1234.114 314.083 Q 1226.312 315.471 1217.6 315.471 Z " fill="rgb(212,27,32)"></path></g></g></g></g></svg>