<svg xmlns="http://www.w3.org/2000/svg" version="1.1" xmlns:xlink="http://www.w3.org/1999/xlink" xmlns:svgjs="http://svgjs.com/svgjs" width="512" height="512" x="0" y="0" viewBox="0 0 60 54" style="enable-background:new 0 0 512 512" xml:space="preserve" class=""><g><g fill="#000" fill-rule="nonzero"><path d="M7 48h18a1 1 0 0 0 0-2H7a1 1 0 0 0 0 2zM58.274 20.58a4 4 0 0 0 1.015-5.565l-2.274-3.29a4.006 4.006 0 0 0-5.565-1.015L21.991 31.083a2 2 0 0 0-.512.517L15.2 40.8a2 2 0 0 0 2.123 3.071l10.829-2.621c.239-.057.465-.16.666-.3zM28.351 38.844 23.8 32.263l18.1-12.514 4.551 6.581zm15.188-20.232 2.468-1.707 4.551 6.581-2.467 1.706zm9.049-6.257a2 2 0 0 1 2.782.508l2.275 3.289c.626.91.4 2.154-.507 2.784L52.2 22.348l-4.551-6.58zM22.415 33.776l4.032 5.83-4.166 1.01L20 37.317zm-5.562 8.156 1.939-2.845 1.408 2.034zM7 23h22.85a1 1 0 0 0 0-2H7a1 1 0 0 0 0 2zM7 28h15.62a1 1 0 0 0 0-2H7a1 1 0 0 0 0 2zM7 33h10.57a1 1 0 0 0 0-2H7a1 1 0 0 0 0 2zM7 38h7.16a1 1 0 0 0 0-2H7a1 1 0 0 0 0 2zM7 43h4.84a1 1 0 0 0 0-2H7a1 1 0 0 0 0 2z" fill="#000000" data-original="#000000" class=""></path><path d="M3 54h34a3 3 0 0 0 3-3V38a1 1 0 0 0-2 0v13a1 1 0 0 1-1 1H3a1 1 0 0 1-1-1V17h37a1 1 0 0 0 1-1v-6a5.006 5.006 0 0 0-5-5h-.058C34.633 2.129 33.015 0 31 0s-3.633 2.129-3.942 5h-3.116C23.633 2.129 22.015 0 20 0s-3.633 2.129-3.942 5h-3.116C12.633 2.129 11.015 0 9 0S5.367 2.129 5.058 5H5a5.006 5.006 0 0 0-5 5v41a3 3 0 0 0 3 3zM2 10a3 3 0 0 1 3-3h3a1 1 0 1 0 0-2h-.923C7.327 3.233 8.2 2 9 2c.944 0 2 1.71 2 4s-1.056 4-2 4a1 1 0 0 0 0 2c2.015 0 3.633-2.129 3.942-5H19a1 1 0 0 0 0-2h-.923C18.327 3.233 19.2 2 20 2c.944 0 2 1.71 2 4s-1.056 4-2 4a1 1 0 0 0 0 2c2.015 0 3.633-2.129 3.942-5H30a1 1 0 0 0 0-2h-.923C29.327 3.233 30.2 2 31 2c.944 0 2 1.71 2 4s-1.056 4-2 4a1 1 0 0 0 0 2c2.015 0 3.633-2.129 3.942-5H35a3 3 0 0 1 3 3v5H2z" fill="#000000" data-original="#000000" class=""></path><path d="M33 45v2h-2a1 1 0 0 0 0 2h3a1 1 0 0 0 1-1v-3a1 1 0 0 0-2 0z" fill="#000000" data-original="#000000" class=""></path></g></g></svg>