<svg xmlns="http://www.w3.org/2000/svg" version="1.1" xmlns:xlink="http://www.w3.org/1999/xlink" xmlns:svgjs="http://svgjs.com/svgjs" width="512" height="512" x="0" y="0" viewBox="0 0 512.008 512.008" style="enable-background:new 0 0 512 512" xml:space="preserve" class=""><g><path d="M488 232c-10.414 0-19.215 6.71-22.527 16h-25.68c-1.73-40.09-16.344-76.871-39.8-106.344V80h17.472c3.312 9.29 12.11 16 22.527 16 13.23 0 24-10.77 24-24s-10.77-24-24-24c-10.418 0-19.215 6.71-22.527 16H392a7.99 7.99 0 0 0-8 8v52c-31.36-30.414-73.457-49.793-120-51.8V46.52c9.29-3.305 16-12.106 16-22.52 0-13.23-10.77-24-24-24s-24 10.77-24 24c0 10.414 6.71 19.215 16 22.527v25.68c-46.543 2-88.64 21.387-120 51.8V72c0-4.426-3.586-8-8-8H94.527C91.215 54.71 82.414 48 72 48c-13.23 0-24 10.77-24 24s10.77 24 24 24c10.414 0 19.215-6.71 22.527-16H112v61.656C88.543 171.13 73.93 207.91 72.2 248H46.52c-3.305-9.29-12.106-16-22.52-16-13.23 0-24 10.77-24 24s10.77 24 24 24c10.414 0 19.215-6.71 22.527-16h25.68c1.73 40.09 16.344 76.871 39.8 106.344V432H94.536c-3.312-9.29-12.11-16-22.527-16-13.23 0-24 10.77-24 24s10.77 24 24 24c10.418 0 19.215-6.71 22.527-16H120c4.414 0 8-3.574 8-8v-52c31.36 30.414 73.457 49.793 120 51.8v25.68c-9.29 3.313-16 12.114-16 22.528 0 13.23 10.77 24 24 24s24-10.77 24-24c0-10.414-6.71-19.215-16-22.528V439.8c46.543-2 88.64-21.386 120-51.8v52c0 4.426 3.574 8 8 8h25.473c3.312 9.29 12.113 16 22.527 16 13.23 0 24-10.77 24-24s-10.77-24-24-24c-10.414 0-19.215 6.71-22.527 16H400v-61.656C423.457 340.87 438.07 304.09 439.8 264h25.68c3.313 9.29 12.114 16 22.528 16 13.23 0 24-10.77 24-24S501.23 232 488 232zM440 64c4.414 0 8 3.586 8 8s-3.586 8-8 8-8-3.586-8-8 3.586-8 8-8zM72 80c-4.406 0-8-3.586-8-8s3.594-8 8-8 8 3.586 8 8-3.594 8-8 8zm0 368c-4.406 0-8-3.586-8-8s3.594-8 8-8 8 3.586 8 8-3.594 8-8 8zm368-16c4.414 0 8 3.586 8 8s-3.586 8-8 8-8-3.586-8-8 3.586-8 8-8zm-46.328-272h-52.274c-11.757-28.176-28.453-51.457-48.574-67.809 41.504 9.329 77.207 34.016 100.848 67.809zM248 92.305V160h-59.816c14.351-30.945 35.425-55.04 59.816-67.695zm16-.008c24.441 12.672 45.473 36.742 59.816 67.703H264zM256 16c4.406 0 8 3.586 8 8s-3.594 8-8 8-8-3.586-8-8 3.594-8 8-8zm-36.77 76.184c-20.109 16.351-36.84 39.648-48.62 67.816h-52.29c23.657-33.809 59.383-58.504 100.91-67.816zM24 264c-4.406 0-8-3.586-8-8s3.594-8 8-8 8 3.586 8 8-3.594 8-8 8zm94.328 88h52.281c11.758 28.176 28.461 51.457 48.582 67.809C177.68 410.48 141.97 385.8 118.328 352zM264 419.703V352h59.816c-14.343 30.96-35.375 55.031-59.816 67.703zm-16 0c-24.441-12.672-45.473-36.742-59.809-67.703H248zM256 496c-4.406 0-8-3.586-8-8s3.594-8 8-8 8 3.586 8 8-3.594 8-8 8zm36.824-76.191c20.121-16.344 36.817-39.633 48.574-67.809h52.274c-23.64 33.793-59.344 58.48-100.848 67.809zM403.695 336h-56.27a241.18 241.18 0 0 0 6.177-22.207l-15.594-3.563c-2.031 8.938-4.617 17.524-7.61 25.77H264v-24h-16v24h-66.39c-2.993-8.246-5.579-16.832-7.618-25.77l-15.601 3.563a245.336 245.336 0 0 0 6.175 22.2h-56.27c-11.737-21.579-18.663-46.056-19.898-72H104v-16H88.406c1.235-25.946 8.16-50.427 19.899-72h56.312c-2.176 6.573-4.137 13.343-5.785 20.335L174.398 200c1.961-8.305 4.418-16.305 7.211-24.008H248v24h16v-24h66.398c2.993 8.246 5.579 16.84 7.618 25.785l15.593-3.562A243.153 243.153 0 0 0 347.426 176h56.27c11.738 21.574 18.663 46.055 19.898 72H408v16h15.594c-1.235 25.945-8.16 50.426-19.899 72zM488 264c-4.414 0-8-3.586-8-8s3.586-8 8-8 8 3.586 8 8-3.586 8-8 8zm0 0" fill="#000000" data-original="#000000"></path><path d="M120 232v48c0 8.824 7.176 16 16 16h32c4.414 0 8-3.574 8-8v-32c0-4.426-3.586-8-8-8h-16v16h8v16h-24v-48h40v-16h-40c-8.824 0-16 7.176-16 16zM224 216h-24c-4.414 0-8 3.574-8 8v64c0 4.426 3.586 8 8 8h24c13.23 0 24-10.77 24-24v-32c0-13.23-10.77-24-24-24zm8 56c0 4.414-3.594 8-8 8h-16v-48h16c4.406 0 8 3.586 8 8zM296 216h-24a7.99 7.99 0 0 0-8 8v72h16v-24h16c13.23 0 24-10.77 24-24v-8c0-13.23-10.77-24-24-24zm8 32c0 4.414-3.586 8-8 8h-16v-24h16c4.414 0 8 3.586 8 8zM368 216h-24a7.99 7.99 0 0 0-8 8v72h16v-24h17.559L376 282.297V296h16v-16a8.027 8.027 0 0 0-1.215-4.238l-6.433-10.29C389.032 261.09 392 254.903 392 248v-8c0-13.23-10.77-24-24-24zm-16 40v-24h16c4.414 0 8 3.586 8 8v8c0 4.414-3.586 8-8 8zm0 0" fill="#000000" data-original="#000000"></path></g></svg>