<svg xmlns="http://www.w3.org/2000/svg" version="1.1" xmlns:xlink="http://www.w3.org/1999/xlink" xmlns:svgjs="http://svgjs.com/svgjs" width="512" height="512" x="0" y="0" viewBox="0 0 32 32" style="enable-background:new 0 0 512 512" xml:space="preserve" class=""><g><path d="M27 20h-8a.5.5 0 0 1 0-1h8c1.654 0 3-1.346 3-3s-1.346-3-3-3a5.815 5.815 0 0 1-.185.021.472.472 0 0 1-.422-.186.498.498 0 0 1-.091-.451c.131-.459.198-.925.198-1.384 0-2.757-2.243-5-5-5a4.96 4.96 0 0 0-2.218.524.499.499 0 0 1-.691-.275A6.522 6.522 0 0 0 12.5 2c-.76 0-1.503.13-2.211.386a.502.502 0 0 1-.34-.942A7.488 7.488 0 0 1 12.5 1a7.53 7.53 0 0 1 6.827 4.411A5.91 5.91 0 0 1 21.5 5c3.309 0 6 2.691 6 6 0 .339-.03.681-.09 1.021A4.006 4.006 0 0 1 31 16c0 2.206-1.794 4-4 4zM7.5 20H6c-2.757 0-5-2.243-5-5a4.979 4.979 0 0 1 4.17-4.915A7.49 7.49 0 0 1 5 8.5c0-1.573.481-3.078 1.393-4.354a.5.5 0 1 1 .813.582A6.45 6.45 0 0 0 6 8.5c0 .633.093 1.264.278 1.877a.502.502 0 0 1-.456.643A3.985 3.985 0 0 0 2 15c0 2.206 1.794 4 4 4h1.5a.5.5 0 0 1 0 1z" fill="#000000" data-original="#000000" class=""></path><path d="M19.5 31h-8A2.503 2.503 0 0 1 9 28.5v-18C9 9.121 10.122 8 11.5 8h8c1.378 0 2.5 1.121 2.5 2.5v7.002a.5.5 0 0 1-1 0V10.5c0-.827-.673-1.5-1.5-1.5h-8c-.827 0-1.5.673-1.5 1.5v18c0 .827.673 1.5 1.5 1.5h8c.827 0 1.5-.673 1.5-1.5v-9a.5.5 0 0 1 1 0v9c0 1.379-1.122 2.5-2.5 2.5zM8.315 3.382a.496.496 0 0 1-.389-.183.488.488 0 0 1 .067-.694l.028-.021a.504.504 0 0 1 .698.095.496.496 0 0 1-.404.803z" fill="#000000" data-original="#000000" class=""></path><path d="M16.5 11h-2a.5.5 0 0 1 0-1h2a.5.5 0 0 1 0 1zM15.5 26a.5.5 0 0 1-.5-.5v-4c0-1.379 1.122-2.5 2.5-2.5h2a.5.5 0 0 1 0 1h-2c-.827 0-1.5.673-1.5 1.5v4a.5.5 0 0 1-.5.5z" fill="#000000" data-original="#000000" class=""></path><path d="M15.5 26a.502.502 0 0 1-.354-.146l-1.5-1.5a.5.5 0 0 1 .707-.707l1.146 1.146 1.146-1.146a.5.5 0 0 1 .707.707l-1.5 1.5A.494.494 0 0 1 15.5 26zM25.5 23.95c-.276 0-.5-.174-.5-.45v-.1a.5.5 0 0 1 1 0c0 .276-.224.55-.5.55zM25.5 25.95c-.276 0-.5-.174-.5-.45v-.1a.5.5 0 0 1 1 0c0 .276-.224.55-.5.55zM25.5 27.95c-.276 0-.5-.174-.5-.45v-.1a.5.5 0 0 1 1 0c0 .276-.224.55-.5.55zM5.5 23.95c-.276 0-.5-.174-.5-.45v-.1a.5.5 0 0 1 1 0c0 .276-.224.55-.5.55zM5.5 25.95c-.276 0-.5-.174-.5-.45v-.1a.5.5 0 0 1 1 0c0 .276-.224.55-.5.55zM5.5 27.95c-.276 0-.5-.174-.5-.45v-.1a.5.5 0 0 1 1 0c0 .276-.224.55-.5.55z" fill="#000000" data-original="#000000" class=""></path></g></svg>