<svg xmlns="http://www.w3.org/2000/svg" version="1.1" xmlns:xlink="http://www.w3.org/1999/xlink" xmlns:svgjs="http://svgjs.com/svgjs" width="512" height="512" x="0" y="0" viewBox="0 0 512 512" style="enable-background:new 0 0 512 512" xml:space="preserve" class=""><g><path d="M256 434.106c-14.002 0-25.394 11.392-25.394 25.394s11.392 25.394 25.394 25.394c14.003 0 25.394-11.392 25.394-25.394S270.003 434.106 256 434.106zm0 35.788c-5.731 0-10.394-4.663-10.394-10.394s4.663-10.394 10.394-10.394 10.394 4.663 10.394 10.394-4.663 10.394-10.394 10.394zM372.326 383.233a7.5 7.5 0 0 0 7.5-7.5v-6.103c13.273-3.199 21.787-14.461 23.654-25.567 2.414-14.357-5.087-26.836-19.108-31.792-8.219-2.905-17.321-6.424-22.514-10.498-2.029-1.591-2.906-4.92-2.235-8.48.657-3.489 3.025-7.719 7.695-9.126 10.501-3.16 17.349 2.482 17.827 2.893l1.76 1.615a7.501 7.501 0 0 0 10.143-11.052l-1.789-1.642c-.352-.325-6.063-5.466-15.433-7.21v-4.82c0-4.142-3.357-7.5-7.5-7.5s-7.5 3.358-7.5 7.5v5.349c-.605.151-1.216.318-1.834.504-9.29 2.798-16.229 10.734-18.109 20.71-1.723 9.139 1.235 17.976 7.718 23.061 5.562 4.362 13.318 8.081 26.772 12.837 10.391 3.673 9.757 12.535 9.316 15.163-1.123 6.676-6.737 13.89-16.412 13.954-8.87.068-11.882-.419-18.824-4.962a7.5 7.5 0 0 0-10.382 2.171 7.499 7.499 0 0 0 2.171 10.382c7.655 5.008 13.013 6.694 19.585 7.207v5.404a7.5 7.5 0 0 0 7.499 7.502zM111.998 117.1h33.755c12.407 0 22.5-10.093 22.5-22.5V60.844c0-12.407-10.093-22.5-22.5-22.5h-33.755c-12.407 0-22.5 10.093-22.5 22.5V94.6c0 12.407 10.093 22.5 22.5 22.5zm-7.5-56.256c0-4.136 3.364-7.5 7.5-7.5h33.755c4.136 0 7.5 3.364 7.5 7.5V94.6c0 4.136-3.364 7.5-7.5 7.5h-33.755c-4.136 0-7.5-3.364-7.5-7.5zM89.498 203.654c0 12.407 10.093 22.5 22.5 22.5h33.755c12.407 0 22.5-10.093 22.5-22.5v-33.755c0-12.407-10.093-22.5-22.5-22.5h-33.755c-12.407 0-22.5 10.093-22.5 22.5zm15-33.756c0-4.136 3.364-7.5 7.5-7.5h33.755c4.136 0 7.5 3.364 7.5 7.5v33.755c0 4.136-3.364 7.5-7.5 7.5h-33.755c-4.136 0-7.5-3.364-7.5-7.5zM197.098 117.1h199.309c4.143 0 7.5-3.358 7.5-7.5s-3.357-7.5-7.5-7.5H197.098a7.5 7.5 0 0 0 0 15zM197.098 194.276h199.309c4.143 0 7.5-3.358 7.5-7.5s-3.357-7.5-7.5-7.5H197.098a7.5 7.5 0 0 0 0 15zM197.098 303.33h99.655c4.143 0 7.5-3.358 7.5-7.5s-3.357-7.5-7.5-7.5h-99.655a7.5 7.5 0 0 0 0 15zM197.098 335.207h99.655c4.143 0 7.5-3.358 7.5-7.5s-3.357-7.5-7.5-7.5h-99.655a7.5 7.5 0 0 0 0 15zM96.998 383.656h199.755c4.143 0 7.5-3.358 7.5-7.5s-3.357-7.5-7.5-7.5H96.998a7.5 7.5 0 0 0 0 15z" fill="#000000" data-original="#000000" class=""></path><path d="M420 0H92C68.565 0 49.5 19.065 49.5 42.5v162.157a7.5 7.5 0 0 0 15 0V42.5C64.5 27.336 76.836 15 92 15h328c15.164 0 27.5 12.336 27.5 27.5V407h-383V237.343a7.5 7.5 0 0 0-15 0V469.5c0 23.435 19.065 42.5 42.5 42.5h328c23.435 0 42.5-19.065 42.5-42.5v-427C462.5 19.065 443.435 0 420 0zm0 497H92c-15.164 0-27.5-12.336-27.5-27.5V422h383v47.5c0 15.164-12.336 27.5-27.5 27.5z" fill="#000000" data-original="#000000" class=""></path><path d="M197.098 226.154h199.309c4.143 0 7.5-3.358 7.5-7.5s-3.357-7.5-7.5-7.5H197.098a7.5 7.5 0 0 0 0 15zM396.407 85.222c4.143 0 7.5-3.358 7.5-7.5s-3.357-7.5-7.5-7.5h-41.131c-4.143 0-7.5 3.358-7.5 7.5s3.357 7.5 7.5 7.5zM197.098 85.222H322.59c4.143 0 7.5-3.358 7.5-7.5s-3.357-7.5-7.5-7.5H197.098a7.5 7.5 0 0 0 0 15zM89.498 312.707c0 12.407 10.093 22.5 22.5 22.5a7.5 7.5 0 0 0 0-15c-4.136 0-7.5-3.364-7.5-7.5v-33.755c0-4.136 3.364-7.5 7.5-7.5h33.755c4.136 0 7.5 3.364 7.5 7.5v33.755c0 4.136-3.364 7.5-7.5 7.5a7.5 7.5 0 0 0 0 15c12.407 0 22.5-10.093 22.5-22.5v-33.755c0-12.407-10.093-22.5-22.5-22.5h-33.755c-12.407 0-22.5 10.093-22.5 22.5z" fill="#000000" data-original="#000000" class=""></path></g></svg>