<svg xmlns="http://www.w3.org/2000/svg" version="1.1" xmlns:xlink="http://www.w3.org/1999/xlink" xmlns:svgjs="http://svgjs.com/svgjs" width="512" height="512" x="0" y="0" viewBox="0 0 512 512" style="enable-background:new 0 0 512 512" xml:space="preserve" class=""><g><path d="M88 80h184a8 8 0 0 0 0-16H88a8 8 0 0 0 0 16ZM48 128h136a8 8 0 0 0 0-16H48a8 8 0 0 0 0 16ZM48 176h24a8 8 0 0 0 0-16H48a8 8 0 0 0 0 16ZM192 160h-88a8 8 0 0 0 0 16h88a8 8 0 0 0 0-16ZM168 216a8 8 0 0 0-8-8H48a8 8 0 0 0 0 16h112a8 8 0 0 0 8-8ZM136 272a8 8 0 0 0 0-16H96a8 8 0 0 0 0 16ZM48 368h40a8 8 0 0 0 0-16H48a8 8 0 0 0 0 16ZM136 400H48a8 8 0 0 0 0 16h88a8 8 0 0 0 0-16ZM152 304H48a8 8 0 0 0 0 16h104a8 8 0 0 0 0-16ZM136 352h-16a8 8 0 0 0 0 16h16a8 8 0 0 0 0-16ZM48 272h16a8 8 0 0 0 0-16H48a8 8 0 0 0 0 16ZM208 120a8 8 0 0 0 8 8h72a8 8 0 0 0 0-16h-72a8 8 0 0 0-8 8Z" fill="#000000" data-original="#000000" class=""></path><path d="M496 256h-44.687l-16-16 34.343-34.343a8 8 0 0 0 0-11.314L451.314 176l9.373-9.373a32.037 32.037 0 0 0 0-45.255l-6.058-6.058a32 32 0 0 0-45.255 0L376 148.686V88a8 8 0 0 0-2.343-5.657l-64-64A8 8 0 0 0 304 16H16a8 8 0 0 0-8 8v464a8 8 0 0 0 8 8h352a8 8 0 0 0 8-8v-88h50.745a39.732 39.732 0 0 0 28.284-11.716L467.313 376H496a8 8 0 0 0 8-8V264a8 8 0 0 0-8-8Zm-72-27.314L411.314 216 440 187.314 452.687 200Zm-3.313-102.059a16 16 0 0 1 22.627 0l6.058 6.058a16.019 16.019 0 0 1 0 22.627L440 164.687 411.314 136Zm8 49.373L336 268.686 307.314 240 400 147.314ZM333.54 328h-34.226l41.418-41.418c7.668 26.618-3.093 38.149-7.192 41.418ZM232 360v8a32.117 32.117 0 0 0 .307 4.379L224 380.687 195.313 352 272 275.314 300.686 304l-24 24H264a32.036 32.036 0 0 0-32 32Zm-44.043 7.271 20.772 20.772-29.081 8.309ZM312 292.686 283.314 264 296 251.314 324.686 280Zm-12.191-67.809L245.8 240.308a8 8 0 0 0-4.957 4.114l-32.273 64.546a8 8 0 0 1-11.27 3.282L185.213 305a7.988 7.988 0 0 1-2.928-10.653l47.084-87.447L320 184.246l16.352 4.088Zm-46.227 29.849 22.93-6.552-39.312 39.309ZM312 43.313 348.687 80H312ZM360 480H24V32h272v56a8 8 0 0 0 8 8h56v68.686l-10.454 10.455-27.606-6.9a8.009 8.009 0 0 0-3.88 0l-96 24a8 8 0 0 0-5.1 3.968L168.2 286.76a23.966 23.966 0 0 0 8.783 31.959l12.087 7.252a23.948 23.948 0 0 0 6.878 2.769l-17.6 17.6a7.964 7.964 0 0 0-2.033 3.459l-16 56a8 8 0 0 0 9.89 9.89l56-16a7.991 7.991 0 0 0 3.461-2.03l9.507-9.507A31.948 31.948 0 0 0 264 400h96Zm128-120h-24a8 8 0 0 0-5.657 2.343l-14.628 14.628a23.839 23.839 0 0 1-16.97 7.029H264a16.019 16.019 0 0 1-16-16v-8a16.019 16.019 0 0 1 16-16h72a7.994 7.994 0 0 0 3.8-.959c.972-.524 9.655-5.469 15.185-17.476 6.509-14.133 5.953-31.486-1.608-51.626L400 227.314 412.686 240l-26.343 26.343a8 8 0 0 0 11.314 11.314L424 251.314l18.343 18.343A8 8 0 0 0 448 272h40Z" fill="#000000" data-original="#000000" class=""></path></g></svg>